<svg version="1.1" id="Layer_1" xmlns="http://www.w3.org/2000/svg" xmlns:xlink="http://www.w3.org/1999/xlink" x="0px" y="0px"
	 width="100%" viewBox="0 0 512 512" enable-background="new 0 0 512 512" xml:space="preserve">
<path fill="#012744" opacity="1.000000" stroke="none" 
	d="
M351.000000,513.000000 
	C234.028427,513.000000 117.556847,513.000000 1.042632,513.000000 
	C1.042632,342.403412 1.042632,171.806793 1.042632,1.105087 
	C171.554916,1.105087 342.109924,1.105087 512.832458,1.105087 
	C512.832458,171.666534 512.832458,342.333252 512.832458,513.000000 
	C459.140045,513.000000 405.320038,513.000000 351.000000,513.000000 
M235.075974,424.828186 
	C252.464371,416.896027 269.792114,408.826752 287.267792,401.091827 
	C295.515137,397.441498 299.573761,392.545013 299.277405,382.559509 
	C298.472076,355.424377 299.058136,328.249329 298.975403,301.090454 
	C298.950806,293.016205 301.880737,286.407928 307.089996,280.291016 
	C319.248749,266.013702 331.061279,251.441528 343.007843,236.983643 
	C351.677826,226.491074 360.334534,215.987549 369.003113,205.493790 
	C379.889679,192.315002 390.753052,179.116867 401.683807,165.974808 
	C407.825897,158.590271 414.105438,151.320190 420.281799,143.963928 
	C424.415253,139.040817 427.656250,133.912796 427.114746,126.901253 
	C426.603058,120.275932 426.479706,113.529213 427.119995,106.926514 
	C428.243042,95.346115 420.745392,89.920403 410.252716,89.933388 
	C308.114563,90.059822 205.976181,90.009109 103.837868,90.009689 
	C102.504959,90.009697 101.156494,89.890259 99.841728,90.047562 
	C92.605225,90.913368 86.435692,95.812630 86.890350,103.641296 
	C87.372551,111.944244 87.140884,120.300461 86.942627,128.626801 
	C86.818939,133.821289 88.698509,137.990555 92.149345,141.669388 
	C93.623154,143.240570 94.982262,144.921768 96.356583,146.583511 
	C107.886848,160.525238 119.327667,174.541916 130.955429,188.401779 
	C142.691010,202.390137 154.698273,216.150650 166.423553,230.147491 
	C178.892563,245.032181 191.036789,260.190063 203.581268,275.009949 
	C211.165329,283.969635 215.395798,293.540802 215.196991,305.764496 
	C214.630753,340.578949 214.971619,375.408600 215.017197,410.232208 
	C215.030975,420.767609 224.347275,427.847260 235.075974,424.828186 
z"/>
<path fill="#013F39" opacity="1.000000" stroke="none" 
	d="
M234.694229,424.941498 
	C224.347275,427.847260 215.030975,420.767609 215.017197,410.232208 
	C214.971619,375.408600 214.630753,340.578949 215.196991,305.764496 
	C215.395798,293.540802 211.165329,283.969635 203.581268,275.009949 
	C191.036789,260.190063 178.892563,245.032181 166.423553,230.147491 
	C154.698273,216.150650 142.691010,202.390137 130.955429,188.401779 
	C119.327667,174.541916 107.886848,160.525238 96.356583,146.583511 
	C94.982262,144.921768 93.623154,143.240570 92.149345,141.669388 
	C88.698509,137.990555 86.818939,133.821289 86.942627,128.626801 
	C87.140884,120.300461 87.372551,111.944244 86.890350,103.641296 
	C86.435692,95.812630 92.605225,90.913368 99.841728,90.047562 
	C101.156494,89.890259 102.504959,90.009697 103.837868,90.009689 
	C205.976181,90.009109 308.114563,90.059822 410.252716,89.933388 
	C420.745392,89.920403 428.243042,95.346115 427.119995,106.926514 
	C426.479706,113.529213 426.603058,120.275932 427.114746,126.901253 
	C427.656250,133.912796 424.415253,139.040817 420.281799,143.963928 
	C414.105438,151.320190 407.825897,158.590271 401.683807,165.974808 
	C390.753052,179.116867 379.889679,192.315002 369.003113,205.493790 
	C360.334534,215.987549 351.677826,226.491074 343.007843,236.983643 
	C331.061279,251.441528 319.248749,266.013702 307.089996,280.291016 
	C301.880737,286.407928 298.950806,293.016205 298.975403,301.090454 
	C299.058136,328.249329 298.472076,355.424377 299.277405,382.559509 
	C299.573761,392.545013 295.515137,397.441498 287.267792,401.091827 
	C269.792114,408.826752 252.464371,416.896027 234.694229,424.941498 
M293.693970,176.317230 
	C293.478455,176.600800 293.262909,176.884369 292.878204,177.696594 
	C292.312500,178.148758 291.746765,178.600906 290.704712,179.308411 
	C290.488770,179.592682 290.272827,179.876953 290.052704,180.055069 
	C290.052704,180.055069 290.158813,180.060333 289.688477,180.312164 
	C289.477478,180.593918 289.266449,180.875687 289.051025,181.051163 
	C289.051025,181.051163 289.157318,181.055618 288.687195,181.309616 
	C288.476013,181.591919 288.264801,181.874237 288.049377,182.049225 
	C288.049377,182.049225 288.156677,182.053574 287.686584,182.308609 
	C287.475311,182.591217 287.264069,182.873810 287.048615,183.048462 
	C287.048615,183.048462 287.156555,183.052826 286.686432,183.308197 
	C286.475128,183.590942 286.263794,183.873688 286.048340,184.048386 
	C286.048340,184.048386 286.156372,184.052673 285.686035,184.307098 
	C285.473663,184.588882 285.261261,184.870651 285.044250,185.042984 
	C285.044250,185.042984 285.153778,185.045990 284.680786,185.315094 
	C284.469482,185.604858 284.258148,185.894623 283.936249,186.623611 
	C283.755035,186.900925 283.498779,187.039978 282.693237,187.299744 
	C282.477631,187.584488 282.261993,187.869232 282.043030,188.044128 
	C282.043030,188.044128 282.152863,188.048386 281.684052,188.306717 
	C281.473511,188.590302 281.262939,188.873871 281.048157,189.048080 
	C281.048157,189.048080 281.157532,189.052231 280.686798,189.307831 
	C280.475128,189.590836 280.263458,189.873840 280.047760,190.047501 
	C280.047760,190.047501 280.157104,190.051804 279.686615,190.307388 
	C279.475128,190.590286 279.263611,190.873169 279.048157,191.047699 
	C279.048157,191.047699 279.156525,191.052094 278.686615,191.306625 
	C278.474945,191.588547 278.263275,191.870483 278.047333,192.044556 
	C278.047333,192.044556 278.155212,192.048401 277.683624,192.313583 
	C277.471283,192.600037 277.258942,192.886490 276.943878,193.619202 
	C276.773163,193.912491 276.518127,194.056839 275.704041,194.307358 
	C275.488556,194.590637 275.273041,194.873917 275.053375,195.055099 
	C275.053375,195.055099 275.155426,195.060379 274.688049,195.312775 
	C274.478973,195.593857 274.269867,195.874924 274.055969,196.056137 
	C274.055969,196.056137 274.155823,196.061096 273.686798,196.310471 
	C273.473999,196.589127 273.261200,196.867783 273.044586,197.044830 
	C273.044586,197.044830 273.146210,197.048813 272.680695,197.305588 
	C272.470093,197.586304 272.259521,197.867020 272.045013,198.044937 
	C272.045013,198.044937 272.147797,198.048889 271.681305,198.305710 
	C271.470367,198.586868 271.259399,198.868027 271.044556,199.044647 
	C271.044556,199.044647 271.149109,199.048615 270.681793,199.305237 
	C270.470551,199.586655 270.259277,199.868057 270.044159,200.044098 
	C270.044159,200.044098 270.149536,200.048004 269.682129,200.304703 
	C269.470642,200.586014 269.259155,200.867325 269.043945,201.043488 
	C269.043945,201.043488 269.149078,201.047394 268.681976,201.305420 
	C268.470917,201.587402 268.259827,201.869400 268.045013,202.044632 
	C268.045013,202.044632 268.151764,202.048737 267.683960,202.305145 
	C267.471832,202.586182 267.259705,202.867218 267.044159,203.043182 
	C267.044159,203.043182 267.149200,203.047379 266.682770,203.305038 
	C266.470734,203.585693 266.258728,203.866333 266.042999,204.043442 
	C266.042999,204.043442 266.146545,204.047333 265.681213,204.301132 
	C265.467651,204.578354 265.254089,204.855560 265.037109,205.037140 
	C265.037109,205.037140 265.132751,205.040207 264.672577,205.304382 
	C264.466278,205.587433 264.259949,205.870499 264.048492,206.049515 
	C264.048492,206.049515 264.152618,206.052902 263.684753,206.309448 
	C263.475159,206.592316 263.265594,206.875183 263.051178,207.051544 
	C263.051178,207.051544 263.157684,207.055771 262.688171,207.310608 
	C262.477905,207.593414 262.267639,207.876221 262.052612,208.052673 
	C262.052612,208.052673 262.158966,208.057129 261.689056,208.311310 
	C261.478760,208.594055 261.268463,208.876816 261.053101,209.051636 
	C261.053101,209.051636 261.161072,209.055740 260.687836,209.315643 
	C260.474670,209.600525 260.261505,209.885406 259.875214,210.697861 
	C259.306488,211.147263 258.737762,211.596664 257.694763,212.299103 
	C257.475922,212.579071 257.257080,212.859055 257.035675,213.036575 
	C257.035675,213.036575 257.138062,213.040375 256.674591,213.303589 
	C256.466309,213.587173 256.258026,213.870758 256.045624,214.045105 
	C256.045624,214.045105 256.154877,214.048950 255.685272,214.306320 
	C255.473145,214.588989 255.261017,214.871658 255.045380,215.045654 
	C255.045380,215.045654 255.153992,215.050110 254.684662,215.298859 
	C254.467865,215.574341 254.251053,215.849823 254.037689,216.050919 
	C254.037689,216.050919 254.110519,216.066544 253.204910,216.024582 
	C252.298477,216.061417 251.392044,216.098251 249.894333,215.899384 
	C240.774597,206.897583 231.685776,197.864151 222.522064,188.907349 
	C217.947311,184.435883 214.690994,184.476822 210.092575,188.897888 
	C207.693512,191.204376 205.356995,193.577484 203.034531,195.961731 
	C198.267166,200.855942 198.198395,203.849503 202.950790,208.661346 
	C216.867935,222.752579 230.806656,236.822845 244.800400,250.837952 
	C250.802658,256.849365 254.382187,256.765076 260.426086,250.711868 
	C287.238251,223.858521 314.007568,196.962250 340.889435,170.178894 
	C343.881195,167.198105 345.822266,164.033157 345.677734,159.109741 
	C345.392426,158.756042 345.107147,158.402344 344.385468,157.877518 
	C344.145966,157.649704 344.019867,157.370636 343.989380,156.307449 
	C342.122131,151.630051 339.100250,148.189667 333.466309,146.798080 
	C332.961151,146.263474 332.456024,145.728882 331.653900,144.539963 
	C329.144745,141.926163 327.058624,142.909149 325.138428,145.151611 
	C325.138428,145.151611 325.290985,145.176514 324.777557,145.341904 
	C324.526306,145.591629 324.275055,145.841370 323.878876,146.549149 
	C323.684906,146.836166 323.415039,146.990967 322.631897,147.296036 
	C322.437897,147.580978 322.243927,147.865921 322.041290,148.047989 
	C322.041290,148.047989 322.144501,148.047104 321.680206,148.317703 
	C321.482086,148.611465 321.283966,148.905228 321.076599,149.077805 
	C321.076599,149.077805 321.198059,149.082031 320.715851,149.332321 
	C320.507019,149.622726 320.298187,149.913116 320.082184,150.081757 
	C320.082184,150.081757 320.203949,150.088943 319.718994,150.334824 
	C319.508392,150.624252 319.297791,150.913681 319.080292,151.080139 
	C319.080292,151.080139 319.203247,151.087326 318.717926,151.333252 
	C318.506592,151.622574 318.295258,151.911896 318.077271,152.077179 
	C318.077271,152.077179 318.201294,152.084045 317.716431,152.331177 
	C317.504883,152.620468 317.293304,152.909760 317.075195,153.075272 
	C317.075195,153.075272 317.198975,153.081924 316.714966,153.328568 
	C316.502563,153.616455 316.290131,153.904343 316.071442,154.071426 
	C316.071442,154.071426 316.192230,154.077728 315.711029,154.326843 
	C315.500000,154.614716 315.289001,154.902588 315.071747,155.071579 
	C315.071747,155.071579 315.190613,155.077927 314.710144,155.325989 
	C314.498749,155.612656 314.287323,155.899323 314.070526,156.069031 
	C314.070526,156.069031 314.187408,156.075836 313.708191,156.325043 
	C313.496887,156.611404 313.285583,156.897766 313.068542,157.068375 
	C313.068542,157.068375 313.184235,157.074524 312.705597,157.323959 
	C312.494202,157.610046 312.282806,157.896118 312.065979,158.065781 
	C312.065979,158.065781 312.182373,158.071838 311.703674,158.321442 
	C311.491486,158.607101 311.279266,158.892761 311.062012,159.061722 
	C311.062012,159.061722 311.178680,159.067444 310.700928,159.318436 
	C310.488556,159.603882 310.276184,159.889328 310.058929,160.058578 
	C310.058929,160.058578 310.175110,160.063965 309.698730,160.316513 
	C309.486755,160.601883 309.274811,160.887238 309.057831,161.057205 
	C309.057831,161.057205 309.173218,161.062210 308.699097,161.318436 
	C308.490936,161.606064 308.282776,161.893692 308.068481,162.067825 
	C308.068481,162.067825 308.181976,162.073624 307.704926,162.323441 
	C307.494934,162.609375 307.284943,162.895325 307.068787,163.068802 
	C307.068787,163.068802 307.181244,163.074677 306.704773,163.322220 
	C306.493835,163.606216 306.282867,163.890198 306.065552,164.066605 
	C306.065552,164.066605 306.173187,164.071793 305.700012,164.321930 
	C305.491364,164.606308 305.282715,164.890686 305.068054,165.068039 
	C305.068054,165.068039 305.175049,165.073990 304.700775,165.321869 
	C304.490448,165.605042 304.280121,165.888214 304.064880,166.063812 
	C304.064880,166.063812 304.172363,166.070145 303.698578,166.319504 
	C303.487885,166.602646 303.277191,166.885788 303.061371,167.061142 
	C303.061371,167.061142 303.169159,167.066711 302.696411,167.317383 
	C302.485718,167.600357 302.274994,167.883347 302.059387,168.058838 
	C302.059387,168.058838 302.166840,168.064331 301.694885,168.315460 
	C301.483704,168.597717 301.272491,168.879990 301.056763,169.055801 
	C301.056763,169.055801 301.163147,169.061081 300.693024,169.314835 
	C300.482941,169.597656 300.272858,169.880478 300.058075,170.057220 
	C300.058075,170.057220 300.164154,170.062561 299.693970,170.315247 
	C299.483154,170.597153 299.272339,170.879059 299.056671,171.056427 
	C299.056671,171.056427 299.161163,171.061478 298.692078,171.314987 
	C298.481842,171.596970 298.271606,171.878952 298.056396,172.056778 
	C298.056396,172.056778 298.160553,172.061722 297.691132,172.312256 
	C297.478638,172.591751 297.266144,172.871246 297.048950,173.049759 
	C297.048950,173.049759 297.149963,173.053696 296.684235,173.313538 
	C296.477661,173.598328 296.271057,173.883118 296.058838,174.059280 
	C296.058838,174.059280 296.167511,174.064026 295.695038,174.317108 
	C295.484985,174.601379 295.274963,174.885635 295.059692,175.059662 
	C295.059692,175.059662 295.169922,175.064896 294.696442,175.316956 
	C294.485596,175.600906 294.274780,175.884857 294.058807,176.057068 
	C294.058807,176.057068 294.170563,176.061996 293.693970,176.317230 
z"/>
<path fill="#FBF8F3" opacity="1.000000" stroke="none" 
	d="
M291.181061,179.053070 
	C291.746765,178.600906 292.312500,178.148758 293.225800,177.336243 
	C293.772461,176.671280 293.971497,176.366638 294.170563,176.061996 
	C294.170563,176.061996 294.058807,176.057068 294.324463,176.020233 
	C294.783356,175.677216 294.976624,175.371048 295.169922,175.064896 
	C295.169922,175.064896 295.059692,175.059662 295.325104,175.021530 
	C295.782837,174.676941 295.975189,174.370483 296.167511,174.064026 
	C296.167511,174.064026 296.058838,174.059280 296.322937,174.019073 
	C296.774689,173.670486 296.962341,173.362091 297.149963,173.053711 
	C297.149963,173.053696 297.048950,173.049759 297.313171,173.008850 
	C297.771790,172.665863 297.966187,172.363785 298.160553,172.061722 
	C298.160553,172.061722 298.056396,172.056778 298.321106,172.017090 
	C298.777618,171.672089 298.969391,171.366791 299.161163,171.061478 
	C299.161163,171.061478 299.056671,171.056427 299.321472,171.017136 
	C299.778900,170.672745 299.971527,170.367645 300.164154,170.062561 
	C300.164154,170.062561 300.058075,170.057220 300.322815,170.018433 
	C300.779419,169.673462 300.971283,169.367264 301.163147,169.061081 
	C301.163147,169.061081 301.056763,169.055801 301.321472,169.017212 
	C301.779724,168.673859 301.973267,168.369095 302.166840,168.064331 
	C302.166840,168.064331 302.059387,168.058838 302.324066,168.020050 
	C302.782227,167.676407 302.975677,167.371567 303.169159,167.066711 
	C303.169159,167.066711 303.061371,167.061142 303.325806,167.022156 
	C303.784302,166.678833 303.978333,166.374496 304.172363,166.070145 
	C304.172363,166.070145 304.064880,166.063812 304.329681,166.025726 
	C304.788025,165.683090 304.981537,165.378540 305.175049,165.073990 
	C305.175049,165.073990 305.068054,165.068039 305.332764,165.028107 
	C305.789398,164.682709 305.981293,164.377243 306.173187,164.071793 
	C306.173187,164.071793 306.065552,164.066605 306.331146,164.026962 
	C306.791565,163.683105 306.986389,163.378891 307.181244,163.074677 
	C307.181244,163.074677 307.068787,163.068802 307.335388,163.031921 
	C307.795349,162.687897 307.988647,162.380753 308.181976,162.073624 
	C308.181976,162.073624 308.068481,162.067825 308.335266,162.030487 
	C308.792419,161.682831 308.982819,161.372528 309.173218,161.062210 
	C309.173218,161.062210 309.057831,161.057205 309.325287,161.022552 
	C309.786865,160.679932 309.980988,160.371948 310.175110,160.063965 
	C310.175110,160.063965 310.058929,160.058578 310.326355,160.024261 
	C310.788757,159.682449 310.983734,159.374939 311.178680,159.067444 
	C311.178680,159.067444 311.062012,159.061722 311.329224,159.027313 
	C311.791718,158.685883 311.987030,158.378845 312.182373,158.071838 
	C312.182373,158.071838 312.065979,158.065781 312.332764,158.030548 
	C312.794434,157.688400 312.989319,157.381454 313.184235,157.074524 
	C313.184235,157.074524 313.068542,157.068375 313.335144,157.032303 
	C313.796967,156.689423 313.992188,156.382629 314.187408,156.075836 
	C314.187408,156.075836 314.070526,156.069031 314.338043,156.034973 
	C314.800598,155.693253 314.995605,155.385590 315.190613,155.077942 
	C315.190613,155.077927 315.071747,155.071579 315.339417,155.036804 
	C315.802155,154.693924 315.997192,154.385818 316.192230,154.077728 
	C316.192230,154.077728 316.071442,154.071426 316.339844,154.037888 
	C316.805176,153.696869 317.002075,153.389389 317.198975,153.081924 
	C317.198975,153.081924 317.075195,153.075272 317.343994,153.042679 
	C317.808929,152.701401 318.005127,152.392731 318.201294,152.084045 
	C318.201294,152.084045 318.077271,152.077179 318.345856,152.044708 
	C318.810699,151.703918 319.006989,151.395630 319.203247,151.087326 
	C319.203247,151.087326 319.080292,151.080139 319.348633,151.047058 
	C319.812622,150.705627 320.008270,150.397278 320.203949,150.088943 
	C320.203949,150.088943 320.082184,150.081757 320.350891,150.047440 
	C320.812408,149.702759 321.005219,149.392395 321.198059,149.082031 
	C321.198059,149.082031 321.076599,149.077805 321.343231,149.038300 
	C321.788055,148.681564 321.966278,148.364334 322.144501,148.047104 
	C322.144501,148.047104 322.041290,148.047989 322.298584,147.997009 
	C322.727051,147.635208 322.898193,147.324387 323.069336,147.013550 
	C323.415039,146.990967 323.684906,146.836166 324.218750,146.251160 
	C324.802704,145.694275 325.046844,145.435379 325.290985,145.176514 
	C325.290985,145.176514 325.138428,145.151611 325.563660,145.143082 
	C327.976257,145.154449 329.963562,145.174362 331.950897,145.194275 
	C332.456024,145.728882 332.961151,146.263474 333.863647,147.198334 
	C337.509705,150.745819 340.758453,153.893066 344.007202,157.040329 
	C344.019867,157.370636 344.145966,157.649704 344.684418,158.301178 
	C345.266174,159.079132 345.548981,159.433395 345.831787,159.787689 
	C345.822266,164.033157 343.881195,167.198105 340.889435,170.178894 
	C314.007568,196.962250 287.238251,223.858521 260.426086,250.711868 
	C254.382187,256.765076 250.802658,256.849365 244.800400,250.837952 
	C230.806656,236.822845 216.867935,222.752579 202.950790,208.661346 
	C198.198395,203.849503 198.267166,200.855942 203.034531,195.961731 
	C205.356995,193.577484 207.693512,191.204376 210.092575,188.897888 
	C214.690994,184.476822 217.947311,184.435883 222.522064,188.907349 
	C231.685776,197.864151 240.774597,206.897583 250.410706,216.339371 
	C251.988220,216.541748 253.049362,216.304153 254.110519,216.066544 
	C254.110519,216.066544 254.037689,216.050919 254.303909,216.008163 
	C254.764755,215.660309 254.959366,215.355209 255.153992,215.050110 
	C255.153992,215.050110 255.045380,215.045654 255.312408,215.009796 
	C255.771255,214.665619 255.963058,214.357285 256.154877,214.048950 
	C256.154877,214.048950 256.045624,214.045105 256.311584,214.008728 
	C256.764404,213.661697 256.951233,213.351028 257.138062,213.040375 
	C257.138062,213.040375 257.035675,213.036575 257.303162,212.998016 
	C257.770111,212.655014 257.969604,212.350555 258.169067,212.046082 
	C258.737762,211.596664 259.306488,211.147263 260.225464,210.339172 
	C260.770813,209.672241 260.965942,209.363998 261.161072,209.055740 
	C261.161072,209.055740 261.053101,209.051636 261.317871,209.012817 
	C261.774750,208.668381 261.966858,208.362762 262.158966,208.057129 
	C262.158966,208.057129 262.052612,208.052673 262.317383,208.013077 
	C262.774017,207.667572 262.965851,207.361679 263.157684,207.055771 
	C263.157684,207.055771 263.051178,207.051544 263.316040,207.011963 
	C263.771484,206.665878 263.962067,206.359390 264.152618,206.052902 
	C264.152618,206.052902 264.048492,206.049515 264.312012,206.007599 
	C264.761261,205.657196 264.946991,205.348709 265.132751,205.040207 
	C265.132751,205.040207 265.037109,205.037140 265.302094,204.996460 
	C265.760223,204.652969 265.953400,204.350143 266.146545,204.047333 
	C266.146545,204.047333 266.042999,204.043442 266.309052,204.005722 
	C266.766479,203.661133 266.957825,203.354248 267.149200,203.047379 
	C267.149200,203.047379 267.044159,203.043182 267.310822,203.007141 
	C267.768921,202.663635 267.960327,202.356186 268.151764,202.048737 
	C268.151764,202.048737 268.045013,202.044632 268.311066,202.007782 
	C268.767761,201.663086 268.958435,201.355240 269.149078,201.047394 
	C269.149078,201.047394 269.043945,201.043488 269.309631,201.005814 
	C269.766754,200.661423 269.958130,200.354706 270.149536,200.048004 
	C270.149536,200.048004 270.044159,200.044098 270.309753,200.006256 
	C270.766571,199.661804 270.957855,199.355209 271.149109,199.048615 
	C271.149109,199.048615 271.044556,199.044647 271.309814,199.006287 
	C271.765961,198.661591 271.956879,198.355240 272.147797,198.048889 
	C272.147797,198.048889 272.045013,198.044937 272.309937,198.005981 
	C272.765289,197.660934 272.955750,197.354874 273.146210,197.048813 
	C273.146210,197.048813 273.044586,197.044830 273.309509,197.006805 
	C273.768250,196.666214 273.962036,196.363647 274.155823,196.061096 
	C274.155823,196.061096 274.055969,196.056137 274.320068,196.015396 
	C274.774597,195.669891 274.964996,195.365143 275.155426,195.060379 
	C275.155426,195.060379 275.053375,195.055099 275.320068,195.013412 
	C275.784088,194.665222 275.981445,194.358734 276.178802,194.052246 
	C276.518127,194.056839 276.773163,193.912491 277.257294,193.296722 
	C277.765564,192.665619 277.960388,192.357010 278.155212,192.048401 
	C278.155212,192.048401 278.047333,192.044556 278.313293,192.008118 
	C278.771698,191.665146 278.964111,191.358612 279.156525,191.052094 
	C279.156525,191.052094 279.048157,191.047699 279.313904,191.010162 
	C279.772156,190.665695 279.964630,190.358749 280.157104,190.051804 
	C280.157104,190.051804 280.047760,190.047501 280.313507,190.010162 
	C280.772003,189.665955 280.964752,189.359085 281.157532,189.052231 
	C281.157532,189.052231 281.048157,189.048080 281.313782,189.009796 
	C281.770569,188.663788 281.961700,188.356079 282.152863,188.048386 
	C282.152863,188.048386 282.043030,188.044128 282.311646,188.006729 
	C282.776031,187.659805 282.971771,187.350296 283.167542,187.040771 
	C283.498779,187.039978 283.755035,186.900925 284.256805,186.306366 
	C284.769501,185.674744 284.961639,185.360367 285.153778,185.045990 
	C285.153778,185.045990 285.044250,185.042984 285.310120,185.006104 
	C285.769409,184.663712 285.962891,184.358185 286.156372,184.052673 
	C286.156372,184.052673 286.048340,184.048386 286.313782,184.010406 
	C286.771698,183.665909 286.964111,183.359360 287.156555,183.052826 
	C287.156555,183.052826 287.048615,183.048462 287.314026,183.010544 
	C287.771851,182.666275 287.964264,182.359924 288.156677,182.053574 
	C288.156677,182.053574 288.049377,182.049225 288.314636,182.011230 
	C288.772400,181.667374 288.964874,181.361496 289.157318,181.055634 
	C289.157318,181.055618 289.051025,181.051163 289.315918,181.012848 
	C289.773468,180.669785 289.966125,180.365051 290.158813,180.060333 
	C290.158813,180.060333 290.052704,180.055069 290.319580,180.014053 
	C290.784637,179.666382 290.982849,179.359726 291.181061,179.053070 
z"/>
<path fill="#10312F" opacity="1.000000" stroke="none" 
	d="
M343.998291,156.673889 
	C340.758453,153.893066 337.509705,150.745819 334.128662,147.289169 
	C339.100250,148.189667 342.122131,151.630051 343.998291,156.673889 
z"/>
<path fill="#10312F" opacity="1.000000" stroke="none" 
	d="
M331.802399,144.867126 
	C329.963562,145.174362 327.976257,145.154449 325.563843,145.220367 
	C327.058624,142.909149 329.144745,141.926163 331.802399,144.867126 
z"/>
<path fill="#10312F" opacity="1.000000" stroke="none" 
	d="
M253.657715,216.045563 
	C253.049362,216.304153 251.988220,216.541748 250.706329,216.457214 
	C251.392044,216.098251 252.298477,216.061417 253.657715,216.045563 
z"/>
<path fill="#10312F" opacity="1.000000" stroke="none" 
	d="
M280.922180,189.180023 
	C280.964752,189.359085 280.772003,189.665955 280.315552,190.064835 
	C280.263458,189.873840 280.475128,189.590836 280.922180,189.180023 
z"/>
<path fill="#10312F" opacity="1.000000" stroke="none" 
	d="
M271.914551,198.177307 
	C271.956879,198.355240 271.765961,198.661591 271.311768,199.058563 
	C271.259399,198.868027 271.470367,198.586868 271.914551,198.177307 
z"/>
<path fill="#10312F" opacity="1.000000" stroke="none" 
	d="
M272.913452,197.177200 
	C272.955750,197.354874 272.765289,197.660934 272.311890,198.057373 
	C272.259521,197.867020 272.470093,197.586304 272.913452,197.177200 
z"/>
<path fill="#10312F" opacity="1.000000" stroke="none" 
	d="
M273.921326,196.185791 
	C273.962036,196.363647 273.768250,196.666214 273.311432,197.057587 
	C273.261200,196.867783 273.473999,196.589127 273.921326,196.185791 
z"/>
<path fill="#10312F" opacity="1.000000" stroke="none" 
	d="
M274.921753,195.186584 
	C274.964996,195.365143 274.774597,195.669891 274.322479,196.065338 
	C274.269867,195.874924 274.478973,195.593857 274.921753,195.186584 
z"/>
<path fill="#10312F" opacity="1.000000" stroke="none" 
	d="
M275.941406,194.179810 
	C275.981445,194.358734 275.784088,194.665222 275.322144,195.064453 
	C275.273041,194.873917 275.488556,194.590637 275.941406,194.179810 
z"/>
<path fill="#10312F" opacity="1.000000" stroke="none" 
	d="
M277.919434,192.181000 
	C277.960388,192.357010 277.765564,192.665619 277.308655,193.073578 
	C277.258942,192.886490 277.471283,192.600037 277.919434,192.181000 
z"/>
<path fill="#10312F" opacity="1.000000" stroke="none" 
	d="
M278.921570,191.179352 
	C278.964111,191.358612 278.771698,191.665146 278.315430,192.062042 
	C278.263275,191.870483 278.474945,191.588547 278.921570,191.179352 
z"/>
<path fill="#10312F" opacity="1.000000" stroke="none" 
	d="
M279.921875,190.179596 
	C279.964630,190.358749 279.772156,190.665695 279.315918,191.064362 
	C279.263611,190.873169 279.475128,190.590286 279.921875,190.179596 
z"/>
<path fill="#10312F" opacity="1.000000" stroke="none" 
	d="
M270.915466,199.176926 
	C270.957855,199.355209 270.766571,199.661804 270.311646,200.058929 
	C270.259277,199.868057 270.470551,199.586655 270.915466,199.176926 
z"/>
<path fill="#10312F" opacity="1.000000" stroke="none" 
	d="
M281.918457,188.177551 
	C281.961700,188.356079 281.770569,188.663788 281.315918,189.064484 
	C281.262939,188.873871 281.473511,188.590302 281.918457,188.177551 
z"/>
<path fill="#10312F" opacity="1.000000" stroke="none" 
	d="
M282.930389,187.170258 
	C282.971771,187.350296 282.776031,187.659805 282.313324,188.061646 
	C282.261993,187.869232 282.477631,187.584488 282.930389,187.170258 
z"/>
<path fill="#10312F" opacity="1.000000" stroke="none" 
	d="
M284.917297,185.180542 
	C284.961639,185.360367 284.769501,185.674744 284.312103,186.086761 
	C284.258148,185.894623 284.469482,185.604858 284.917297,185.180542 
z"/>
<path fill="#10312F" opacity="1.000000" stroke="none" 
	d="
M285.921204,184.179886 
	C285.962891,184.358185 285.769409,184.663712 285.312408,185.060822 
	C285.261261,184.870651 285.473663,184.588882 285.921204,184.179886 
z"/>
<path fill="#10312F" opacity="1.000000" stroke="none" 
	d="
M286.921509,183.180511 
	C286.964111,183.359360 286.771698,183.665909 286.315857,184.064438 
	C286.263794,183.873688 286.475128,183.590942 286.921509,183.180511 
z"/>
<path fill="#10312F" opacity="1.000000" stroke="none" 
	d="
M287.921631,182.181091 
	C287.964264,182.359924 287.771851,182.666275 287.316101,183.064514 
	C287.264069,182.873810 287.475311,182.591217 287.921631,182.181091 
z"/>
<path fill="#10312F" opacity="1.000000" stroke="none" 
	d="
M288.922241,181.182617 
	C288.964874,181.361496 288.772400,181.667374 288.316772,182.064896 
	C288.264801,181.874237 288.476013,181.591919 288.922241,181.182617 
z"/>
<path fill="#10312F" opacity="1.000000" stroke="none" 
	d="
M289.923645,180.186249 
	C289.966125,180.365051 289.773468,180.669785 289.318115,181.065979 
	C289.266449,180.875687 289.477478,180.593918 289.923645,180.186249 
z"/>
<path fill="#10312F" opacity="1.000000" stroke="none" 
	d="
M269.915833,200.176361 
	C269.958130,200.354706 269.766754,200.661423 269.311523,201.058380 
	C269.259155,200.867325 269.470642,200.586014 269.915833,200.176361 
z"/>
<path fill="#10312F" opacity="1.000000" stroke="none" 
	d="
M268.915527,201.176407 
	C268.958435,201.355240 268.767761,201.663086 268.312927,202.061157 
	C268.259827,201.869400 268.470917,201.587402 268.915527,201.176407 
z"/>
<path fill="#10312F" opacity="1.000000" stroke="none" 
	d="
M267.917847,202.176941 
	C267.960327,202.356186 267.768921,202.663635 267.312531,203.059662 
	C267.259705,202.867218 267.471832,202.586182 267.917847,202.176941 
z"/>
<path fill="#10312F" opacity="1.000000" stroke="none" 
	d="
M266.915985,203.176208 
	C266.957825,203.354248 266.766479,203.661133 266.310913,204.057495 
	C266.258728,203.866333 266.470734,203.585693 266.915985,203.176208 
z"/>
<path fill="#10312F" opacity="1.000000" stroke="none" 
	d="
M265.913879,204.174225 
	C265.953400,204.350143 265.760223,204.652969 265.303802,205.044281 
	C265.254089,204.855560 265.467651,204.578354 265.913879,204.174225 
z"/>
<path fill="#10312F" opacity="1.000000" stroke="none" 
	d="
M264.902649,205.172302 
	C264.946991,205.348709 264.761261,205.657196 264.314575,206.059631 
	C264.259949,205.870499 264.466278,205.587433 264.902649,205.172302 
z"/>
<path fill="#10312F" opacity="1.000000" stroke="none" 
	d="
M263.918701,206.181183 
	C263.962067,206.359390 263.771484,206.665878 263.318481,207.065216 
	C263.265594,206.875183 263.475159,206.592316 263.918701,206.181183 
z"/>
<path fill="#10312F" opacity="1.000000" stroke="none" 
	d="
M262.922913,207.183197 
	C262.965851,207.361679 262.774017,207.667572 262.319794,208.066254 
	C262.267639,207.876221 262.477905,207.593414 262.922913,207.183197 
z"/>
<path fill="#10312F" opacity="1.000000" stroke="none" 
	d="
M261.924011,208.184235 
	C261.966858,208.362762 261.774750,208.668381 261.320374,209.066772 
	C261.268463,208.876816 261.478760,208.594055 261.924011,208.184235 
z"/>
<path fill="#10312F" opacity="1.000000" stroke="none" 
	d="
M260.924438,209.185699 
	C260.965942,209.363998 260.770813,209.672241 260.312012,210.075378 
	C260.261505,209.885406 260.474670,209.600525 260.924438,209.185699 
z"/>
<path fill="#10312F" opacity="1.000000" stroke="none" 
	d="
M257.931915,212.172607 
	C257.969604,212.350555 257.770111,212.655014 257.304413,213.049255 
	C257.257080,212.859055 257.475922,212.579071 257.931915,212.172607 
z"/>
<path fill="#10312F" opacity="1.000000" stroke="none" 
	d="
M256.906311,213.171967 
	C256.951233,213.351028 256.764404,213.661697 256.313660,214.063354 
	C256.258026,213.870758 256.466309,213.587173 256.906311,213.171967 
z"/>
<path fill="#10312F" opacity="1.000000" stroke="none" 
	d="
M255.920074,214.177643 
	C255.963058,214.357285 255.771255,214.665619 255.314178,215.064133 
	C255.261017,214.871658 255.473145,214.588989 255.920074,214.177643 
z"/>
<path fill="#10312F" opacity="1.000000" stroke="none" 
	d="
M254.919327,215.174484 
	C254.959366,215.355209 254.764755,215.660309 254.302185,216.045349 
	C254.251053,215.849823 254.467865,215.574341 254.919327,215.174484 
z"/>
<path fill="#10312F" opacity="1.000000" stroke="none" 
	d="
M325.034271,145.259201 
	C325.046844,145.435379 324.802704,145.694275 324.291199,146.022125 
	C324.275055,145.841370 324.526306,145.591629 325.034271,145.259201 
z"/>
<path fill="#10312F" opacity="1.000000" stroke="none" 
	d="
M307.943451,162.198532 
	C307.988647,162.380753 307.795349,162.687897 307.338501,163.088165 
	C307.284943,162.895325 307.494934,162.609375 307.943451,162.198532 
z"/>
<path fill="#10312F" opacity="1.000000" stroke="none" 
	d="
M321.912354,148.182404 
	C321.966278,148.364334 321.788055,148.681564 321.347839,149.098907 
	C321.283966,148.905228 321.482086,148.611465 321.912354,148.182404 
z"/>
<path fill="#10312F" opacity="1.000000" stroke="none" 
	d="
M320.956970,149.207184 
	C321.005219,149.392395 320.812408,149.702759 320.354462,150.108322 
	C320.298187,149.913116 320.507019,149.622726 320.956970,149.207184 
z"/>
<path fill="#10312F" opacity="1.000000" stroke="none" 
	d="
M319.961487,150.211884 
	C320.008270,150.397278 319.812622,150.705627 319.352051,151.108551 
	C319.297791,150.913681 319.508392,150.624252 319.961487,150.211884 
z"/>
<path fill="#10312F" opacity="1.000000" stroke="none" 
	d="
M318.960571,151.210297 
	C319.006989,151.395630 318.810699,151.703918 318.349182,152.106720 
	C318.295258,151.911896 318.506592,151.622574 318.960571,151.210297 
z"/>
<path fill="#10312F" opacity="1.000000" stroke="none" 
	d="
M317.958862,152.207611 
	C318.005127,152.392731 317.808929,152.701401 317.347229,153.104584 
	C317.293304,152.909760 317.504883,152.620468 317.958862,152.207611 
z"/>
<path fill="#10312F" opacity="1.000000" stroke="none" 
	d="
M316.956970,153.205246 
	C317.002075,153.389389 316.805176,153.696869 316.342987,154.098282 
	C316.290131,153.904343 316.502563,153.616455 316.956970,153.205246 
z"/>
<path fill="#10312F" opacity="1.000000" stroke="none" 
	d="
M315.951630,154.202286 
	C315.997192,154.385818 315.802155,154.693924 315.342529,155.096252 
	C315.289001,154.902588 315.500000,154.614716 315.951630,154.202286 
z"/>
<path fill="#10312F" opacity="1.000000" stroke="none" 
	d="
M314.950378,155.201965 
	C314.995605,155.385590 314.800598,155.693253 314.340729,156.093460 
	C314.287323,155.899323 314.498749,155.612656 314.950378,155.201965 
z"/>
<path fill="#10312F" opacity="1.000000" stroke="none" 
	d="
M313.947815,156.200439 
	C313.992188,156.382629 313.796967,156.689423 313.338013,157.090179 
	C313.285583,156.897766 313.496887,156.611404 313.947815,156.200439 
z"/>
<path fill="#10312F" opacity="1.000000" stroke="none" 
	d="
M312.944916,157.199249 
	C312.989319,157.381454 312.794434,157.688400 312.335449,158.088776 
	C312.282806,157.896118 312.494202,157.610046 312.944916,157.199249 
z"/>
<path fill="#10312F" opacity="1.000000" stroke="none" 
	d="
M311.942993,158.196625 
	C311.987030,158.378845 311.791718,158.685883 311.331726,159.085663 
	C311.279266,158.892761 311.491486,158.607101 311.942993,158.196625 
z"/>
<path fill="#10312F" opacity="1.000000" stroke="none" 
	d="
M345.754761,159.448700 
	C345.548981,159.433395 345.266174,159.079132 344.902618,158.386749 
	C345.107147,158.402344 345.392426,158.756042 345.754761,159.448700 
z"/>
<path fill="#10312F" opacity="1.000000" stroke="none" 
	d="
M310.939819,159.192932 
	C310.983734,159.374939 310.788757,159.682449 310.328796,160.082352 
	C310.276184,159.889328 310.488556,159.603882 310.939819,159.192932 
z"/>
<path fill="#10312F" opacity="1.000000" stroke="none" 
	d="
M309.936920,160.190247 
	C309.980988,160.371948 309.786865,160.679932 309.327789,161.080261 
	C309.274811,160.887238 309.486755,160.601883 309.936920,160.190247 
z"/>
<path fill="#10312F" opacity="1.000000" stroke="none" 
	d="
M308.936157,161.190323 
	C308.982819,161.372528 308.792419,161.682831 308.338318,162.087234 
	C308.282776,161.893692 308.490936,161.606064 308.936157,161.190323 
z"/>
<path fill="#10312F" opacity="1.000000" stroke="none" 
	d="
M322.850616,147.154785 
	C322.898193,147.324387 322.727051,147.635208 322.302917,148.048462 
	C322.243927,147.865921 322.437897,147.580978 322.850616,147.154785 
z"/>
<path fill="#10312F" opacity="1.000000" stroke="none" 
	d="
M306.942993,163.198456 
	C306.986389,163.378891 306.791565,163.683105 306.334351,164.080750 
	C306.282867,163.890198 306.493835,163.606216 306.942993,163.198456 
z"/>
<path fill="#10312F" opacity="1.000000" stroke="none" 
	d="
M305.936584,164.196869 
	C305.981293,164.377243 305.789398,164.682709 305.335754,165.081604 
	C305.282715,164.890686 305.491364,164.606308 305.936584,164.196869 
z"/>
<path fill="#10312F" opacity="1.000000" stroke="none" 
	d="
M304.937927,165.197937 
	C304.981537,165.378540 304.788025,165.683090 304.332153,166.079514 
	C304.280121,165.888214 304.490448,165.605042 304.937927,165.197937 
z"/>
<path fill="#10312F" opacity="1.000000" stroke="none" 
	d="
M303.935486,166.194824 
	C303.978333,166.374496 303.784302,166.678833 303.328369,167.076050 
	C303.277191,166.885788 303.487885,166.602646 303.935486,166.194824 
z"/>
<path fill="#10312F" opacity="1.000000" stroke="none" 
	d="
M302.932800,167.192047 
	C302.975677,167.371567 302.782227,167.676407 302.326538,168.073792 
	C302.274994,167.883347 302.485718,167.600357 302.932800,167.192047 
z"/>
<path fill="#10312F" opacity="1.000000" stroke="none" 
	d="
M301.930847,168.189896 
	C301.973267,168.369095 301.779724,168.673859 301.323730,169.070435 
	C301.272491,168.879990 301.483704,168.597717 301.930847,168.189896 
z"/>
<path fill="#10312F" opacity="1.000000" stroke="none" 
	d="
M300.928101,169.187958 
	C300.971283,169.367264 300.779419,169.673462 300.325195,170.071487 
	C300.272858,169.880478 300.482941,169.597656 300.928101,169.187958 
z"/>
<path fill="#10312F" opacity="1.000000" stroke="none" 
	d="
M299.929077,170.188904 
	C299.971527,170.367645 299.778900,170.672745 299.323914,171.069397 
	C299.272339,170.879059 299.483154,170.597153 299.929077,170.188904 
z"/>
<path fill="#10312F" opacity="1.000000" stroke="none" 
	d="
M298.926636,171.188232 
	C298.969391,171.366791 298.777618,171.672089 298.323608,172.069153 
	C298.271606,171.878952 298.481842,171.596970 298.926636,171.188232 
z"/>
<path fill="#10312F" opacity="1.000000" stroke="none" 
	d="
M297.925842,172.186981 
	C297.966187,172.363785 297.771790,172.665863 297.315552,173.059326 
	C297.266144,172.871246 297.478638,172.591751 297.925842,172.186981 
z"/>
<path fill="#10312F" opacity="1.000000" stroke="none" 
	d="
M296.917114,173.183624 
	C296.962341,173.362091 296.774689,173.670486 296.325745,174.073395 
	C296.271057,173.883118 296.477661,173.598328 296.917114,173.183624 
z"/>
<path fill="#10312F" opacity="1.000000" stroke="none" 
	d="
M295.931274,174.190567 
	C295.975189,174.370483 295.782837,174.676941 295.327698,175.076645 
	C295.274963,174.885635 295.484985,174.601379 295.931274,174.190567 
z"/>
<path fill="#10312F" opacity="1.000000" stroke="none" 
	d="
M294.933167,175.190918 
	C294.976624,175.371048 294.783356,175.677216 294.327026,176.076096 
	C294.274780,175.884857 294.485596,175.600906 294.933167,175.190918 
z"/>
<path fill="#10312F" opacity="1.000000" stroke="none" 
	d="
M293.932251,176.189606 
	C293.971497,176.366638 293.772461,176.671280 293.310394,177.071930 
	C293.262909,176.884369 293.478455,176.600800 293.932251,176.189606 
z"/>
<path fill="#10312F" opacity="1.000000" stroke="none" 
	d="
M290.942871,179.180740 
	C290.982849,179.359726 290.784637,179.666382 290.321655,180.067139 
	C290.272827,179.876953 290.488770,179.592682 290.942871,179.180740 
z"/>
</svg>
