<?xml version="1.0" standalone="no"?>
<!DOCTYPE svg PUBLIC "-//W3C//DTD SVG 20010904//EN"
 "http://www.w3.org/TR/2001/REC-SVG-20010904/DTD/svg10.dtd">
<svg version="1.0" xmlns="http://www.w3.org/2000/svg"
 width="512.000000pt" height="512.000000pt" viewBox="0 0 512.000000 512.000000"
 preserveAspectRatio="xMidYMid meet">

<g transform="translate(0.000000,512.000000) scale(0.100000,-0.100000)"
fill="#000000" stroke="none">
<path d="M0 2560 l0 -2560 2560 0 2560 0 0 2560 0 2560 -2560 0 -2560 0 0
-2560z m3379 1045 c39 -40 71 -82 71 -92 0 -11 -13 -38 -29 -59 -16 -21 -217
-227 -448 -456 -410 -409 -419 -418 -458 -418 -39 0 -46 6 -273 237 -129 131
-241 248 -249 260 -21 31 -9 57 51 121 57 61 96 85 123 75 10 -3 88 -75 174
-160 86 -84 163 -153 170 -153 8 0 174 160 369 356 195 196 364 359 375 363
32 13 50 2 124 -74z"/>
</g>
</svg>
